<svg id="_x31__x2C_5" enable-background="new 0 0 24 24" height="512" viewBox="0 0 24 24" width="512" xmlns="http://www.w3.org/2000/svg"><path d="m23.25 16.75h-22.5v4.5c0 1.105.895 2 2 2h18.5c1.105 0 2-.895 2-2z" fill="#607d8b"/><path d="m23.25 16.75h-22.5v-14c0-1.105.895-2 2-2h18.5c1.105 0 2 .895 2 2z" fill="#fff"/><path d="m6.75 13c-.414 0-.75-.336-.75-.75v-5.5c0-.414.336-.75.75-.75s.75.336.75.75v5.5c0 .414-.336.75-.75.75z"/><path d="m11.75 13h-2.5c-.414 0-.75-.336-.75-.75v-1.75c0-.965.785-1.75 1.75-1.75h.5c.138 0 .25-.112.25-.25v-.75c0-.138-.112-.25-.25-.25h-1.5c-.414 0-.75-.336-.75-.75s.336-.75.75-.75h1.5c.965 0 1.75.785 1.75 1.75v.75c0 .965-.785 1.75-1.75 1.75h-.5c-.138 0-.25.112-.25.25v1h1.75c.414 0 .75.336.75.75s-.336.75-.75.75z"/><path d="m15.75 10.25h-1.5c-.414 0-.75-.336-.75-.75s.336-.75.75-.75h1.5c.138 0 .25-.112.25-.25v-.75c0-.138-.112-.25-.25-.25h-1.5c-.414 0-.75-.336-.75-.75s.336-.75.75-.75h1.5c.965 0 1.75.785 1.75 1.75v.75c0 .965-.785 1.75-1.75 1.75z"/><path d="m15.75 13h-1.5c-.414 0-.75-.336-.75-.75s.336-.75.75-.75h1.5c.138 0 .25-.112.25-.25v-.75c0-.138-.112-.25-.25-.25h-1.5c-.414 0-.75-.336-.75-.75s.336-.75.75-.75h1.5c.965 0 1.75.785 1.75 1.75v.75c0 .965-.785 1.75-1.75 1.75z"/><path d="m21.25 24h-18.5c-1.517 0-2.75-1.233-2.75-2.75v-18.5c0-1.517 1.233-2.75 2.75-2.75h18.5c1.517 0 2.75 1.233 2.75 2.75v18.5c0 1.517-1.233 2.75-2.75 2.75zm-18.5-22.5c-.689 0-1.25.561-1.25 1.25v18.5c0 .689.561 1.25 1.25 1.25h18.5c.689 0 1.25-.561 1.25-1.25v-18.5c0-.689-.561-1.25-1.25-1.25z"/><path d="m23.25 17.5h-22.5c-.414 0-.75-.336-.75-.75s.336-.75.75-.75h22.5c.414 0 .75.336.75.75s-.336.75-.75.75z"/><path d="m20.25 20.75h-16.5c-.414 0-.75-.336-.75-.75s.336-.75.75-.75h16.5c.414 0 .75.336.75.75s-.336.75-.75.75z"/><path d="m8.25 21.5c-.414 0-.75-.336-.75-.75v-1.5c0-.414.336-.75.75-.75s.75.336.75.75v1.5c0 .414-.336.75-.75.75z"/></svg>