<svg id="color" enable-background="new 0 0 24 24" height="512" viewBox="0 0 24 24" width="512" xmlns="http://www.w3.org/2000/svg"><path d="m21 0h-18c-1.654 0-3 1.346-3 3v18c0 1.654 1.346 3 3 3h18c1.654 0 3-1.346 3-3v-18c0-1.654-1.346-3-3-3z" fill="#607d8b"/><path d="m22 16h-20v-13c0-.552.447-1 1-1h18c.553 0 1 .448 1 1z" fill="#fff"/><path d="m20 21h-16c-.553 0-1-.448-1-1s.447-1 1-1h16c.553 0 1 .448 1 1s-.447 1-1 1z" fill="#90a4ae"/><path d="m8 22c-.553 0-1-.448-1-1v-2c0-.552.447-1 1-1s1 .448 1 1v2c0 .552-.447 1-1 1z" fill="#90a4ae"/><g fill="#2196f3"><path d="m6.75 13c-.414 0-.75-.336-.75-.75v-5.5c0-.414.336-.75.75-.75s.75.336.75.75v5.5c0 .414-.336.75-.75.75z"/><path d="m11.75 13h-2.5c-.414 0-.75-.336-.75-.75v-1.75c0-.965.785-1.75 1.75-1.75h.5c.138 0 .25-.112.25-.25v-.75c0-.138-.112-.25-.25-.25h-1.5c-.414 0-.75-.336-.75-.75s.336-.75.75-.75h1.5c.965 0 1.75.785 1.75 1.75v.75c0 .965-.785 1.75-1.75 1.75h-.5c-.138 0-.25.112-.25.25v1h1.75c.414 0 .75.336.75.75s-.336.75-.75.75z"/><path d="m15.75 10.25h-1.5c-.414 0-.75-.336-.75-.75s.336-.75.75-.75h1.5c.138 0 .25-.112.25-.25v-.75c0-.138-.112-.25-.25-.25h-1.5c-.414 0-.75-.336-.75-.75s.336-.75.75-.75h1.5c.965 0 1.75.785 1.75 1.75v.75c0 .965-.785 1.75-1.75 1.75z"/><path d="m15.75 13h-1.5c-.414 0-.75-.336-.75-.75s.336-.75.75-.75h1.5c.138 0 .25-.112.25-.25v-.75c0-.138-.112-.25-.25-.25h-1.5c-.414 0-.75-.336-.75-.75s.336-.75.75-.75h1.5c.965 0 1.75.785 1.75 1.75v.75c0 .965-.785 1.75-1.75 1.75z"/></g><path d="m12 0h-9c-1.654 0-3 1.346-3 3v18c0 1.654 1.346 3 3 3h9v-3h-3c0 .552-.447 1-1 1s-1-.448-1-1h-3c-.553 0-1-.448-1-1s.447-1 1-1h3c0-.552.447-1 1-1s1 .448 1 1h3v-3h-10v-13c0-.552.447-1 1-1h9z" fill="#546d79"/><path d="m6.75 13c-.414 0-.75-.336-.75-.75v-5.5c0-.414.336-.75.75-.75s.75.336.75.75v5.5c0 .414-.336.75-.75.75zm5.25-11h-9c-.553 0-1 .448-1 1v13h10v-3.043c-.078.028-.162.043-.25.043h-2.5c-.414 0-.75-.336-.75-.75v-1.75c0-.965.785-1.75 1.75-1.75h.5c.138 0 .25-.112.25-.25v-.75c0-.138-.112-.25-.25-.25h-1.5c-.414 0-.75-.336-.75-.75s.336-.75.75-.75h1.5c.489 0 .932.202 1.25.527z" fill="#dedede"/><path d="m7 19h-3c-.553 0-1 .448-1 1s.447 1 1 1h3zm5 0h-3v2h3z" fill="#7d8f97"/><path d="m8 18c-.553 0-1 .448-1 1v2c0 .552.447 1 1 1s1-.448 1-1v-2c0-.552-.447-1-1-1z" fill="#7d8f97"/><path d="m12 9.723c-.318.325-.761.527-1.25.527h-.5c-.138 0-.25.112-.25.25v1h1.75c.088 0 .172.015.25.043z" fill="#dedede"/><path d="m6.75 6c-.414 0-.75.336-.75.75v5.5c0 .414.336.75.75.75s.75-.336.75-.75v-5.5c0-.414-.336-.75-.75-.75z" fill="#1d83d4"/><path d="m10.75 6h-1.5c-.414 0-.75.336-.75.75s.336.75.75.75h1.5c.138 0 .25.112.25.25v.75c0 .138-.112.25-.25.25h-.5c-.965 0-1.75.785-1.75 1.75v1.75c0 .414.336.75.75.75h2.5c.088 0 .172-.015.25-.043v-1.415c-.078-.028-.162-.043-.25-.043h-1.75v-1c0-.138.112-.25.25-.25h.5c.489 0 .932-.202 1.25-.527v-3.195c-.318-.325-.761-.527-1.25-.527z" fill="#1d83d4"/></svg>